<svg xmlns="http://www.w3.org/2000/svg">
    <symbol id="logo" viewBox="0 0 129 32">
        <g>
            <path fill-rule="evenodd" clip-rule="evenodd" d="M47.4592 27.0451H39.3929V4.95511H47.4592C54.5766 4.95511 59.4797 9.84646 59.4797 16.0001C59.4797 22.1537 54.5766 27.0451 47.4592 27.0451ZM44.1378 9.3731V22.6271H47.4592C51.8878 22.6271 54.5766 19.9447 54.5766 16.0001C54.5766 12.0555 51.8878 9.3731 47.4592 9.3731H44.1378Z" fill="black"/>
            <path d="M79.2612 27.0451H62.6541V13.7844L67.399 13.7844V13.7911H76.8888V17.8935H67.399V22.6271H79.2612V27.0451Z" fill="black"/>
            <path d="M62.6541 9.37057V4.95511H79.2612V9.3731H74.3937V9.37057L62.6541 9.37057Z" fill="black"/>
            <path fill-rule="evenodd" clip-rule="evenodd" d="M88.1879 27.0451H83.443V4.95511H93.7236C99.1012 4.95511 102.581 8.42639 102.581 12.6866C102.581 16.9468 99.1012 20.4181 93.7236 20.4181H88.1879V27.0451ZM88.1879 9.3731V16.0001H93.5654C96.2542 16.0001 97.6777 14.58 97.6777 12.6866C97.6777 10.7932 96.2542 9.3731 93.5654 9.3731H88.1879Z" fill="black"/>
            <path fill-rule="evenodd" clip-rule="evenodd" d="M116.822 27.6762C109.862 27.6762 104.643 22.4693 104.643 16.0001C104.643 9.53089 109.862 4.32397 116.822 4.32397C123.781 4.32397 129 9.53089 129 16.0001C129 22.4693 123.781 27.6762 116.822 27.6762ZM116.822 8.74196C112.709 8.74196 109.704 11.7399 109.704 16.0001C109.704 20.2603 112.709 23.2582 116.822 23.2582C120.934 23.2582 123.939 20.2603 123.939 16.0001C123.939 11.7399 120.934 8.74196 116.822 8.74196Z" fill="black"/>
            <path d="M17.1885 20.8595C17.935 21.2942 17.935 22.381 17.1885 22.8157L1.67959 31.8471C0.933118 32.2818 2.77323e-05 31.7385 2.77704e-05 30.8691L2.85607e-05 12.8061C2.85988e-05 11.9367 0.933119 11.3933 1.67959 11.828L17.1885 20.8595Z" fill="#3E8BF3"/>
            <path d="M10.5182 9.18446C9.77169 9.61916 9.7717 10.7059 10.5182 11.1406L26.0271 20.1721C26.7735 20.6068 27.7066 20.0634 27.7066 19.194L27.7066 1.13107C27.7066 0.261668 26.7735 -0.281708 26.0271 0.152993L10.5182 9.18446Z" fill="#6FD6BD"/>
        </g>
    </symbol>
    <symbol id="arrow"  viewBox="0 0 10 7">
        <path d="M8.65386 0.627075L5.20854 4.07239L1.76323 0.627075L0.708544 1.68176L5.20854 6.18176L9.70854 1.68176L8.65386 0.627075Z" fill="black"/>
    </symbol>
    <symbol id="facebook" viewBox="0 0 16 16">
        <path d="M16 8C16 3.58172 12.4183 0 8 0C3.58172 0 0 3.58172 0 8C0 11.993 2.92547 15.3027 6.75 15.9028V10.3125H4.71875V8H6.75V6.2375C6.75 4.2325 7.94438 3.125 9.77172 3.125C10.6467 3.125 11.5625 3.28125 11.5625 3.28125V5.25H10.5538C9.56 5.25 9.25 5.86672 9.25 6.5V8H11.4688L11.1141 10.3125H9.25V15.9028C13.0745 15.3027 16 11.993 16 8Z" />
    </symbol>
    <symbol id="twitter" viewBox="0 0 16 16">
        <path d="M5.03344 14.5C11.0697 14.5 14.3722 9.4978 14.3722 5.16124C14.3722 5.02062 14.3691 4.87687 14.3628 4.73624C15.0052 4.27164 15.5597 3.69617 16 3.03687C15.4017 3.30307 14.7664 3.47692 14.1159 3.55249C14.8009 3.14194 15.3137 2.49698 15.5594 1.73718C14.915 2.11904 14.2104 2.38841 13.4756 2.53374C12.9806 2.00771 12.326 1.65941 11.6131 1.5427C10.9003 1.42599 10.1688 1.54737 9.53183 1.88806C8.89486 2.22876 8.38787 2.7698 8.08923 3.42754C7.7906 4.08528 7.71695 4.82308 7.87969 5.52687C6.575 5.46139 5.29862 5.12247 4.13332 4.53207C2.96802 3.94166 1.9398 3.11296 1.11531 2.09968C0.696266 2.82216 0.568038 3.6771 0.756687 4.49073C0.945337 5.30436 1.43671 6.01563 2.13094 6.47999C1.60975 6.46344 1.09998 6.32312 0.64375 6.07061V6.11124C0.643283 6.86943 0.905399 7.60439 1.38554 8.19118C1.86568 8.77797 2.53422 9.18037 3.2775 9.32999C2.7947 9.46209 2.28799 9.48133 1.79656 9.38624C2.0063 10.0383 2.41438 10.6086 2.96385 11.0176C3.51331 11.4265 4.17675 11.6537 4.86156 11.6675C3.69895 12.5807 2.26278 13.0761 0.784375 13.0737C0.522191 13.0733 0.260266 13.0573 0 13.0256C1.5019 13.9892 3.24902 14.5009 5.03344 14.5Z" />
    </symbol>
    <symbol id="inst" viewBox="0 0 16 16">
        <path d="M8 1.44062C10.1375 1.44062 10.3906 1.45 11.2313 1.4875C12.0125 1.52187 12.4344 1.65313 12.7156 1.7625C13.0875 1.90625 13.3563 2.08125 13.6344 2.35938C13.9156 2.64062 14.0875 2.90625 14.2313 3.27813C14.3406 3.55938 14.4719 3.98438 14.5063 4.7625C14.5438 5.60625 14.5531 5.85938 14.5531 7.99375C14.5531 10.1313 14.5438 10.3844 14.5063 11.225C14.4719 12.0063 14.3406 12.4281 14.2313 12.7094C14.0875 13.0813 13.9125 13.35 13.6344 13.6281C13.3531 13.9094 13.0875 14.0813 12.7156 14.225C12.4344 14.3344 12.0094 14.4656 11.2313 14.5C10.3875 14.5375 10.1344 14.5469 8 14.5469C5.8625 14.5469 5.60938 14.5375 4.76875 14.5C3.9875 14.4656 3.56563 14.3344 3.28438 14.225C2.9125 14.0813 2.64375 13.9063 2.36563 13.6281C2.08438 13.3469 1.9125 13.0813 1.76875 12.7094C1.65938 12.4281 1.52813 12.0031 1.49375 11.225C1.45625 10.3813 1.44688 10.1281 1.44688 7.99375C1.44688 5.85625 1.45625 5.60313 1.49375 4.7625C1.52813 3.98125 1.65938 3.55938 1.76875 3.27813C1.9125 2.90625 2.0875 2.6375 2.36563 2.35938C2.64688 2.07812 2.9125 1.90625 3.28438 1.7625C3.56563 1.65313 3.99063 1.52187 4.76875 1.4875C5.60938 1.45 5.8625 1.44062 8 1.44062ZM8 0C5.82813 0 5.55625 0.009375 4.70313 0.046875C3.85313 0.084375 3.26875 0.221875 2.7625 0.41875C2.23438 0.625 1.7875 0.896875 1.34375 1.34375C0.896875 1.7875 0.625 2.23438 0.41875 2.75938C0.221875 3.26875 0.084375 3.85 0.046875 4.7C0.009375 5.55625 0 5.82812 0 8C0 10.1719 0.009375 10.4438 0.046875 11.2969C0.084375 12.1469 0.221875 12.7313 0.41875 13.2375C0.625 13.7656 0.896875 14.2125 1.34375 14.6562C1.7875 15.1 2.23438 15.375 2.75938 15.5781C3.26875 15.775 3.85 15.9125 4.7 15.95C5.55313 15.9875 5.825 15.9969 7.99688 15.9969C10.1688 15.9969 10.4406 15.9875 11.2938 15.95C12.1438 15.9125 12.7281 15.775 13.2344 15.5781C13.7594 15.375 14.2063 15.1 14.65 14.6562C15.0938 14.2125 15.3688 13.7656 15.5719 13.2406C15.7688 12.7313 15.9063 12.15 15.9438 11.3C15.9813 10.4469 15.9906 10.175 15.9906 8.00313C15.9906 5.83125 15.9813 5.55938 15.9438 4.70625C15.9063 3.85625 15.7688 3.27188 15.5719 2.76562C15.375 2.23438 15.1031 1.7875 14.6563 1.34375C14.2125 0.9 13.7656 0.625 13.2406 0.421875C12.7313 0.225 12.15 0.0875 11.3 0.05C10.4438 0.009375 10.1719 0 8 0Z" />
        <path d="M8 3.89062C5.73125 3.89062 3.89062 5.73125 3.89062 8C3.89062 10.2688 5.73125 12.1094 8 12.1094C10.2688 12.1094 12.1094 10.2688 12.1094 8C12.1094 5.73125 10.2688 3.89062 8 3.89062ZM8 10.6656C6.52813 10.6656 5.33437 9.47188 5.33437 8C5.33437 6.52813 6.52813 5.33437 8 5.33437C9.47188 5.33437 10.6656 6.52813 10.6656 8C10.6656 9.47188 9.47188 10.6656 8 10.6656Z" />
        <path d="M13.2312 3.72818C13.2312 4.25943 12.8 4.68755 12.2719 4.68755C11.7406 4.68755 11.3125 4.2563 11.3125 3.72818C11.3125 3.19692 11.7438 2.7688 12.2719 2.7688C12.8 2.7688 13.2312 3.20005 13.2312 3.72818Z"/>
    </symbol>
    <symbol id="lang-arrow" viewBox="0 0 24 24">
        <path d="M15 11L12 14L9 11" stroke="#000000" stroke-width="2" stroke-linecap="round" stroke-linejoin="round"/>
    </symbol>
    <symbol id="cash-arrows" viewBox="0 0 16 16">
        <path d="M4 14v2l-4-3 4-3v2h12v2H4zm8-12V0l4 3-4 3V4H0V2h12z" fill-rule="evenodd"/>
    </symbol>
</svg>